<svg width="636" height="499" viewBox="0 0 636 499" fill="none" xmlns="http://www.w3.org/2000/svg">
<path fill-rule="evenodd" clip-rule="evenodd" d="M277.94 39.293C328.52 37.4524 373.526 -10.6211 422.5 2.15791C472.021 15.0797 499.649 66.2844 532.329 105.672C570.55 151.739 656.423 198.714 630.241 252.543C596.852 321.191 474.545 280.82 420.781 335.013C386.718 369.347 449.79 453.477 407.541 477.018C364.929 500.762 326.608 411.295 277.94 414.603C223.202 418.325 188.337 516.597 137.749 495.361C90.6446 475.587 140.032 391.142 115.414 346.378C91.6386 303.143 19.4628 299.469 4.21541 252.543C-10.6496 206.795 16.7628 157.294 40.355 115.374C64.1021 73.1782 93.2174 27.2292 139.33 12.4629C184.926 -2.13804 230.095 41.0342 277.94 39.293Z" fill="#222222"/>
</svg>
