<svg width="551" height="615" viewBox="0 0 551 615" fill="none" xmlns="http://www.w3.org/2000/svg">
<path fill-rule="evenodd" clip-rule="evenodd" d="M352.105 0.125266C409.794 3.9667 424.372 86.6711 464.077 128.699C491.309 157.524 538.769 170.571 549.259 208.813C559.866 247.48 518.475 282.564 517.277 322.64C516.134 360.887 553.048 395.804 542.57 432.605C531.966 469.848 490.745 487.512 462.726 514.241C426.126 549.155 402.59 617.425 352.105 614.3C300.287 611.092 283.722 539.721 249.119 501.017C225.399 474.484 209.004 442.732 180.125 421.933C123.874 381.422 17.4416 390.089 1.44195 322.64C-12.6706 263.147 80.3582 233.029 125.543 191.835C158.546 161.746 197.087 142.038 231.179 113.191C274.035 76.9271 296.089 -3.60473 352.105 0.125266Z" fill="#E12228"/>
</svg>
